<mxfile host="65bd71144e">
    <diagram id="W9Idj33kSskuErdm5feK" name="Page-1">
        <mxGraphModel dx="765" dy="562" grid="1" gridSize="10" guides="1" tooltips="1" connect="1" arrows="1" fold="1" page="1" pageScale="1" pageWidth="850" pageHeight="1100" math="0" shadow="0">
            <root>
                <mxCell id="0"/>
                <mxCell id="1" parent="0"/>
                <mxCell id="2" value="" style="html=1;shadow=0;dashed=0;fontSize=16;fontColor=#181819;align=left;spacing=15;fillColor=#512da8;strokeWidth=1;strokeColor=#FFFFFF;" parent="1" vertex="1">
                    <mxGeometry width="850" height="60" as="geometry"/>
                </mxCell>
                <mxCell id="3" value="Nhân viên" style="fillColor=none;strokeColor=none;fontSize=14;align=center;fontColor=#FFFFFF;" parent="2" vertex="1">
                    <mxGeometry width="70" height="40" relative="1" as="geometry">
                        <mxPoint x="140" y="10" as="offset"/>
                    </mxGeometry>
                </mxCell>
                <mxCell id="4" value="Phòng ban" style="fillColor=none;strokeColor=none;fontSize=14;align=center;fontColor=#FFFFFF;" parent="2" vertex="1">
                    <mxGeometry width="50" height="40" relative="1" as="geometry">
                        <mxPoint x="240" y="10" as="offset"/>
                    </mxGeometry>
                </mxCell>
                <mxCell id="5" value="Bảng lương" style="fillColor=none;strokeColor=none;fontSize=14;align=center;fontColor=#FFFFFF;" parent="2" vertex="1">
                    <mxGeometry width="80" height="40" relative="1" as="geometry">
                        <mxPoint x="330" y="10" as="offset"/>
                    </mxGeometry>
                </mxCell>
                <mxCell id="6" value="Ứng dụng quản lý nhân sự V1.0" style="fillColor=none;strokeColor=none;fontSize=17;align=center;fontColor=#FFFFFF;spacingLeft=1;strokeWidth=1;" parent="2" vertex="1">
                    <mxGeometry width="250" height="40" relative="1" as="geometry">
                        <mxPoint x="540" y="10" as="offset"/>
                    </mxGeometry>
                </mxCell>
                <mxCell id="8" value="" style="rounded=0;whiteSpace=wrap;html=1;fillColor=#ededed;shadow=0;" parent="1" vertex="1">
                    <mxGeometry x="60" y="70" width="730" height="740" as="geometry"/>
                </mxCell>
                <mxCell id="9" value="LOGO" style="fillColor=none;strokeColor=none;fontSize=14;align=center;fontColor=#FFFFFF;" parent="1" vertex="1">
                    <mxGeometry x="60" y="10" width="70" height="40" as="geometry"/>
                </mxCell>
                <mxCell id="12" value="" style="rounded=0;whiteSpace=wrap;html=1;shadow=0;glass=0;sketch=0;strokeColor=#ededed;strokeWidth=0;fillColor=#FFFFFF;" parent="1" vertex="1">
                    <mxGeometry y="60" width="60" height="750" as="geometry"/>
                </mxCell>
                <mxCell id="13" value="" style="rounded=0;whiteSpace=wrap;html=1;shadow=0;glass=0;sketch=0;strokeColor=#ededed;strokeWidth=0;fillColor=#FFFFFF;" parent="1" vertex="1">
                    <mxGeometry x="790" y="60" width="60" height="750" as="geometry"/>
                </mxCell>
                <mxCell id="26" value="" style="line;strokeWidth=1;html=1;perimeter=backbonePerimeter;points=[];outlineConnect=0;strokeColor=#000000;" parent="1" vertex="1">
                    <mxGeometry x="70" y="129" width="710" height="10" as="geometry"/>
                </mxCell>
                <mxCell id="27" value="&lt;font color=&quot;#0085fc&quot;&gt;Nhân viên&lt;/font&gt;/ Bảng lương" style="html=1;shadow=0;dashed=0;shape=mxgraph.bootstrap.rrect;rSize=5;strokeColor=none;strokeWidth=1;fillColor=#E9ECEF;fontColor=#6C757D;whiteSpace=wrap;align=left;verticalAlign=middle;spacingLeft=0;fontStyle=0;fontSize=14;spacing=10;" parent="1" vertex="1">
                    <mxGeometry x="60" y="60" width="730" height="70" as="geometry"/>
                </mxCell>
                <mxCell id="28" value="&lt;font color=&quot;#000000&quot; style=&quot;font-size: 20px&quot;&gt;Bảng lương&lt;/font&gt;" style="text;html=1;strokeColor=none;fillColor=none;align=center;verticalAlign=middle;whiteSpace=wrap;rounded=0;" parent="1" vertex="1">
                    <mxGeometry x="60" y="140" width="140" height="50" as="geometry"/>
                </mxCell>
                <mxCell id="29" value="&lt;font style=&quot;font-size: 14px&quot;&gt;&lt;br&gt;&lt;br&gt;&lt;br&gt;&lt;br&gt;&lt;br&gt;&lt;br&gt;&lt;/font&gt;" style="rounded=1;whiteSpace=wrap;html=1;strokeColor=#ededed;shadow=0;sketch=0;glass=0;fillColor=#333333;strokeWidth=0;" parent="1" vertex="1">
                    <mxGeometry x="70" y="215.5" width="230" height="180" as="geometry"/>
                </mxCell>
                <mxCell id="30" value="&lt;font color=&quot;#ffffff&quot;&gt;IMAGE&lt;/font&gt;" style="rounded=0;whiteSpace=wrap;html=1;shadow=0;glass=0;sketch=0;strokeColor=#ededed;strokeWidth=1;fillColor=#999999;" parent="1" vertex="1">
                    <mxGeometry x="80" y="260.5" width="80" height="85" as="geometry"/>
                </mxCell>
                <mxCell id="35" value="" style="line;strokeWidth=1;html=1;perimeter=backbonePerimeter;points=[];outlineConnect=0;strokeColor=#000000;" parent="1" vertex="1">
                    <mxGeometry x="70" y="190" width="710" height="10" as="geometry"/>
                </mxCell>
                <mxCell id="36" value="Mã nhân viên" style="html=1;shadow=0;dashed=0;shape=mxgraph.bootstrap.rrect;rSize=5;strokeColor=#505050;strokeWidth=1;fillColor=#ffffff;fontColor=#777777;whiteSpace=wrap;align=left;verticalAlign=middle;fontStyle=0;fontSize=14;spacingRight=0;spacing=17;" parent="1" vertex="1">
                    <mxGeometry x="500" y="145" width="280" height="40" as="geometry"/>
                </mxCell>
                <mxCell id="37" value="" style="shape=triangle;direction=south;fillColor=#495057;strokeColor=none;perimeter=none;" parent="36" vertex="1">
                    <mxGeometry x="1" y="0.5" width="10" height="5" relative="1" as="geometry">
                        <mxPoint x="-17" y="-2.5" as="offset"/>
                    </mxGeometry>
                </mxCell>
                <mxCell id="38" value="&lt;font color=&quot;#000000&quot; style=&quot;font-size: 14px&quot;&gt;Sắp xếp theo:&amp;nbsp;&lt;/font&gt;" style="text;html=1;strokeColor=none;fillColor=none;align=center;verticalAlign=middle;whiteSpace=wrap;rounded=0;" parent="1" vertex="1">
                    <mxGeometry x="390" y="147.5" width="100" height="35" as="geometry"/>
                </mxCell>
                <mxCell id="47" value="" style="line;strokeWidth=1;html=1;perimeter=backbonePerimeter;points=[];outlineConnect=0;strokeColor=#000000;" parent="1" vertex="1">
                    <mxGeometry x="80" y="245.5" width="210" height="10" as="geometry"/>
                </mxCell>
                <mxCell id="48" value="&lt;font color=&quot;#ffffff&quot; style=&quot;font-size: 14px&quot;&gt;Họ và tên nhân viên 1&lt;/font&gt;" style="text;html=1;strokeColor=none;fillColor=none;align=center;verticalAlign=middle;whiteSpace=wrap;rounded=0;" parent="1" vertex="1">
                    <mxGeometry x="70" y="215.5" width="230" height="40" as="geometry"/>
                </mxCell>
                <mxCell id="49" value="&lt;font color=&quot;#ffffff&quot; style=&quot;font-size: 14px&quot;&gt;Phòng ban: HR&lt;/font&gt;" style="text;html=1;strokeColor=none;fillColor=none;align=center;verticalAlign=middle;whiteSpace=wrap;rounded=0;" parent="1" vertex="1">
                    <mxGeometry x="160" y="245.5" width="130" height="40" as="geometry"/>
                </mxCell>
                <mxCell id="50" value="&lt;font color=&quot;#ffffff&quot; style=&quot;font-size: 14px&quot;&gt;Mã nhân viên: 0&lt;/font&gt;" style="text;html=1;strokeColor=none;fillColor=none;align=center;verticalAlign=middle;whiteSpace=wrap;rounded=0;" parent="1" vertex="1">
                    <mxGeometry x="160" y="266.5" width="130" height="40" as="geometry"/>
                </mxCell>
                <mxCell id="51" value="&lt;font color=&quot;#ffffff&quot; style=&quot;font-size: 14px&quot;&gt;Hệ số lương: 1.2&lt;/font&gt;" style="text;html=1;strokeColor=none;fillColor=none;align=center;verticalAlign=middle;whiteSpace=wrap;rounded=0;" parent="1" vertex="1">
                    <mxGeometry x="160" y="287.5" width="130" height="40" as="geometry"/>
                </mxCell>
                <mxCell id="52" value="&lt;font color=&quot;#ffffff&quot; style=&quot;font-size: 14px&quot;&gt;Số giờ làm thêm: 4&lt;/font&gt;" style="text;html=1;strokeColor=none;fillColor=none;align=center;verticalAlign=middle;whiteSpace=wrap;rounded=0;" parent="1" vertex="1">
                    <mxGeometry x="160" y="309.5" width="130" height="40" as="geometry"/>
                </mxCell>
                <mxCell id="54" value="" style="html=1;shadow=0;dashed=0;shape=mxgraph.bootstrap.rrect;rSize=5;strokeColor=#CED4DA;html=1;whiteSpace=wrap;fillColor=#FFFFFF;fontColor=#7D868C;align=left;spacing=15;spacingLeft=40;fontSize=14;" parent="1" vertex="1">
                    <mxGeometry x="80" y="349.5" width="210" height="36" as="geometry"/>
                </mxCell>
                <mxCell id="55" value="Lương" style="html=1;shadow=0;dashed=0;shape=mxgraph.bootstrap.leftButton;strokeColor=inherit;gradientColor=inherit;fontColor=inherit;fillColor=#E9ECEF;rSize=5;perimeter=none;whiteSpace=wrap;resizeHeight=1;fontSize=14;" parent="54" vertex="1">
                    <mxGeometry width="85.7142857142857" height="32.400000000000006" as="geometry"/>
                </mxCell>
                <mxCell id="56" value="&lt;font color=&quot;#000000&quot; style=&quot;font-size: 14px&quot;&gt;4500000 VNĐ&lt;/font&gt;" style="text;html=1;strokeColor=none;fillColor=none;align=center;verticalAlign=middle;whiteSpace=wrap;rounded=0;" parent="54" vertex="1">
                    <mxGeometry x="95" y="4.5" width="100" height="27" as="geometry"/>
                </mxCell>
                <mxCell id="178" value="&lt;font style=&quot;font-size: 14px&quot;&gt;&lt;br&gt;&lt;br&gt;&lt;br&gt;&lt;br&gt;&lt;br&gt;&lt;br&gt;&lt;/font&gt;" style="rounded=1;whiteSpace=wrap;html=1;strokeColor=#ededed;shadow=0;sketch=0;glass=0;fillColor=#333333;strokeWidth=0;" parent="1" vertex="1">
                    <mxGeometry x="310" y="218" width="230" height="180" as="geometry"/>
                </mxCell>
                <mxCell id="179" value="&lt;font color=&quot;#ffffff&quot;&gt;IMAGE&lt;/font&gt;" style="rounded=0;whiteSpace=wrap;html=1;shadow=0;glass=0;sketch=0;strokeColor=#ededed;strokeWidth=1;fillColor=#999999;" parent="1" vertex="1">
                    <mxGeometry x="320" y="263" width="80" height="85" as="geometry"/>
                </mxCell>
                <mxCell id="180" value="" style="line;strokeWidth=1;html=1;perimeter=backbonePerimeter;points=[];outlineConnect=0;strokeColor=#000000;" parent="1" vertex="1">
                    <mxGeometry x="320" y="248" width="210" height="10" as="geometry"/>
                </mxCell>
                <mxCell id="181" value="&lt;font color=&quot;#ffffff&quot; style=&quot;font-size: 14px&quot;&gt;Họ và tên nhân viên 2&lt;/font&gt;" style="text;html=1;strokeColor=none;fillColor=none;align=center;verticalAlign=middle;whiteSpace=wrap;rounded=0;" parent="1" vertex="1">
                    <mxGeometry x="310" y="218" width="230" height="40" as="geometry"/>
                </mxCell>
                <mxCell id="182" value="&lt;font color=&quot;#ffffff&quot; style=&quot;font-size: 14px&quot;&gt;Phòng ban: Sale&lt;/font&gt;" style="text;html=1;strokeColor=none;fillColor=none;align=center;verticalAlign=middle;whiteSpace=wrap;rounded=0;" parent="1" vertex="1">
                    <mxGeometry x="400" y="248" width="130" height="40" as="geometry"/>
                </mxCell>
                <mxCell id="183" value="&lt;font color=&quot;#ffffff&quot; style=&quot;font-size: 14px&quot;&gt;Mã nhân viên: 1&lt;/font&gt;" style="text;html=1;strokeColor=none;fillColor=none;align=center;verticalAlign=middle;whiteSpace=wrap;rounded=0;" parent="1" vertex="1">
                    <mxGeometry x="400" y="269" width="130" height="40" as="geometry"/>
                </mxCell>
                <mxCell id="184" value="&lt;font color=&quot;#ffffff&quot; style=&quot;font-size: 14px&quot;&gt;Hệ số lương: 1.2&lt;/font&gt;" style="text;html=1;strokeColor=none;fillColor=none;align=center;verticalAlign=middle;whiteSpace=wrap;rounded=0;" parent="1" vertex="1">
                    <mxGeometry x="400" y="290" width="130" height="40" as="geometry"/>
                </mxCell>
                <mxCell id="185" value="&lt;font color=&quot;#ffffff&quot; style=&quot;font-size: 14px&quot;&gt;Số giờ làm thêm: 3&lt;/font&gt;" style="text;html=1;strokeColor=none;fillColor=none;align=center;verticalAlign=middle;whiteSpace=wrap;rounded=0;" parent="1" vertex="1">
                    <mxGeometry x="400" y="312" width="130" height="40" as="geometry"/>
                </mxCell>
                <mxCell id="186" value="" style="html=1;shadow=0;dashed=0;shape=mxgraph.bootstrap.rrect;rSize=5;strokeColor=#CED4DA;html=1;whiteSpace=wrap;fillColor=#FFFFFF;fontColor=#7D868C;align=left;spacing=15;spacingLeft=40;fontSize=14;" parent="1" vertex="1">
                    <mxGeometry x="320" y="352" width="210" height="36" as="geometry"/>
                </mxCell>
                <mxCell id="187" value="Lương" style="html=1;shadow=0;dashed=0;shape=mxgraph.bootstrap.leftButton;strokeColor=inherit;gradientColor=inherit;fontColor=inherit;fillColor=#E9ECEF;rSize=5;perimeter=none;whiteSpace=wrap;resizeHeight=1;fontSize=14;" parent="186" vertex="1">
                    <mxGeometry width="85.7142857142857" height="32.400000000000006" as="geometry"/>
                </mxCell>
                <mxCell id="188" value="&lt;font color=&quot;#000000&quot; style=&quot;font-size: 14px&quot;&gt;4200000 VNĐ&lt;/font&gt;" style="text;html=1;strokeColor=none;fillColor=none;align=center;verticalAlign=middle;whiteSpace=wrap;rounded=0;" parent="186" vertex="1">
                    <mxGeometry x="95" y="4.5" width="100" height="27" as="geometry"/>
                </mxCell>
                <mxCell id="191" value="&lt;font style=&quot;font-size: 14px&quot;&gt;&lt;br&gt;&lt;br&gt;&lt;br&gt;&lt;br&gt;&lt;br&gt;&lt;br&gt;&lt;/font&gt;" style="rounded=1;whiteSpace=wrap;html=1;strokeColor=#ededed;shadow=0;sketch=0;glass=0;fillColor=#333333;strokeWidth=0;" parent="1" vertex="1">
                    <mxGeometry x="550" y="218" width="230" height="180" as="geometry"/>
                </mxCell>
                <mxCell id="192" value="&lt;font color=&quot;#ffffff&quot;&gt;IMAGE&lt;/font&gt;" style="rounded=0;whiteSpace=wrap;html=1;shadow=0;glass=0;sketch=0;strokeColor=#ededed;strokeWidth=1;fillColor=#999999;" parent="1" vertex="1">
                    <mxGeometry x="560" y="263" width="80" height="85" as="geometry"/>
                </mxCell>
                <mxCell id="193" value="" style="line;strokeWidth=1;html=1;perimeter=backbonePerimeter;points=[];outlineConnect=0;strokeColor=#000000;" parent="1" vertex="1">
                    <mxGeometry x="560" y="248" width="210" height="10" as="geometry"/>
                </mxCell>
                <mxCell id="194" value="&lt;font color=&quot;#ffffff&quot; style=&quot;font-size: 14px&quot;&gt;Họ và tên nhân viên 1&lt;/font&gt;" style="text;html=1;strokeColor=none;fillColor=none;align=center;verticalAlign=middle;whiteSpace=wrap;rounded=0;" parent="1" vertex="1">
                    <mxGeometry x="550" y="218" width="230" height="40" as="geometry"/>
                </mxCell>
                <mxCell id="195" value="&lt;font color=&quot;#ffffff&quot; style=&quot;font-size: 14px&quot;&gt;Phòng ban: Sale&lt;/font&gt;" style="text;html=1;strokeColor=none;fillColor=none;align=center;verticalAlign=middle;whiteSpace=wrap;rounded=0;" parent="1" vertex="1">
                    <mxGeometry x="640" y="248" width="130" height="40" as="geometry"/>
                </mxCell>
                <mxCell id="196" value="&lt;font color=&quot;#ffffff&quot; style=&quot;font-size: 14px&quot;&gt;Mã nhân viên: 1&lt;/font&gt;" style="text;html=1;strokeColor=none;fillColor=none;align=center;verticalAlign=middle;whiteSpace=wrap;rounded=0;" parent="1" vertex="1">
                    <mxGeometry x="640" y="269" width="130" height="40" as="geometry"/>
                </mxCell>
                <mxCell id="197" value="&lt;font color=&quot;#ffffff&quot; style=&quot;font-size: 14px&quot;&gt;Hệ số lương: 1.2&lt;/font&gt;" style="text;html=1;strokeColor=none;fillColor=none;align=center;verticalAlign=middle;whiteSpace=wrap;rounded=0;" parent="1" vertex="1">
                    <mxGeometry x="640" y="290" width="130" height="40" as="geometry"/>
                </mxCell>
                <mxCell id="198" value="&lt;font color=&quot;#ffffff&quot; style=&quot;font-size: 14px&quot;&gt;Số giờ làm thêm: 5&lt;/font&gt;" style="text;html=1;strokeColor=none;fillColor=none;align=center;verticalAlign=middle;whiteSpace=wrap;rounded=0;" parent="1" vertex="1">
                    <mxGeometry x="640" y="312" width="130" height="40" as="geometry"/>
                </mxCell>
                <mxCell id="199" value="" style="html=1;shadow=0;dashed=0;shape=mxgraph.bootstrap.rrect;rSize=5;strokeColor=#CED4DA;html=1;whiteSpace=wrap;fillColor=#FFFFFF;fontColor=#7D868C;align=left;spacing=15;spacingLeft=40;fontSize=14;" parent="1" vertex="1">
                    <mxGeometry x="560" y="352" width="210" height="36" as="geometry"/>
                </mxCell>
                <mxCell id="200" value="Lương" style="html=1;shadow=0;dashed=0;shape=mxgraph.bootstrap.leftButton;strokeColor=inherit;gradientColor=inherit;fontColor=inherit;fillColor=#E9ECEF;rSize=5;perimeter=none;whiteSpace=wrap;resizeHeight=1;fontSize=14;" parent="199" vertex="1">
                    <mxGeometry width="85.7142857142857" height="32.400000000000006" as="geometry"/>
                </mxCell>
                <mxCell id="201" value="&lt;font color=&quot;#000000&quot; style=&quot;font-size: 14px&quot;&gt;3000000 VNĐ&lt;/font&gt;" style="text;html=1;strokeColor=none;fillColor=none;align=center;verticalAlign=middle;whiteSpace=wrap;rounded=0;" parent="199" vertex="1">
                    <mxGeometry x="95" y="4.5" width="100" height="27" as="geometry"/>
                </mxCell>
                <mxCell id="204" value="&lt;font style=&quot;font-size: 14px&quot;&gt;&lt;br&gt;&lt;br&gt;&lt;br&gt;&lt;br&gt;&lt;br&gt;&lt;br&gt;&lt;/font&gt;" style="rounded=1;whiteSpace=wrap;html=1;strokeColor=#ededed;shadow=0;sketch=0;glass=0;fillColor=#333333;strokeWidth=0;" parent="1" vertex="1">
                    <mxGeometry x="70" y="408.25" width="230" height="180" as="geometry"/>
                </mxCell>
                <mxCell id="205" value="&lt;font color=&quot;#ffffff&quot;&gt;IMAGE&lt;/font&gt;" style="rounded=0;whiteSpace=wrap;html=1;shadow=0;glass=0;sketch=0;strokeColor=#ededed;strokeWidth=1;fillColor=#999999;" parent="1" vertex="1">
                    <mxGeometry x="80" y="453.25" width="80" height="85" as="geometry"/>
                </mxCell>
                <mxCell id="207" value="" style="line;strokeWidth=1;html=1;perimeter=backbonePerimeter;points=[];outlineConnect=0;strokeColor=#000000;" parent="1" vertex="1">
                    <mxGeometry x="80" y="438.25" width="210" height="10" as="geometry"/>
                </mxCell>
                <mxCell id="208" value="&lt;font color=&quot;#ffffff&quot; style=&quot;font-size: 14px&quot;&gt;Họ và tên nhân viên 4&lt;/font&gt;" style="text;html=1;strokeColor=none;fillColor=none;align=center;verticalAlign=middle;whiteSpace=wrap;rounded=0;" parent="1" vertex="1">
                    <mxGeometry x="70" y="408.25" width="230" height="40" as="geometry"/>
                </mxCell>
                <mxCell id="209" value="&lt;font color=&quot;#ffffff&quot; style=&quot;font-size: 14px&quot;&gt;Phòng ban: IT&lt;/font&gt;" style="text;html=1;strokeColor=none;fillColor=none;align=center;verticalAlign=middle;whiteSpace=wrap;rounded=0;" parent="1" vertex="1">
                    <mxGeometry x="160" y="438.25" width="130" height="40" as="geometry"/>
                </mxCell>
                <mxCell id="210" value="&lt;font color=&quot;#ffffff&quot; style=&quot;font-size: 14px&quot;&gt;Mã nhân viên: 3&lt;/font&gt;" style="text;html=1;strokeColor=none;fillColor=none;align=center;verticalAlign=middle;whiteSpace=wrap;rounded=0;" parent="1" vertex="1">
                    <mxGeometry x="160" y="459.25" width="130" height="40" as="geometry"/>
                </mxCell>
                <mxCell id="211" value="&lt;font color=&quot;#ffffff&quot; style=&quot;font-size: 14px&quot;&gt;Hệ số lương: 1.2&lt;/font&gt;" style="text;html=1;strokeColor=none;fillColor=none;align=center;verticalAlign=middle;whiteSpace=wrap;rounded=0;" parent="1" vertex="1">
                    <mxGeometry x="160" y="480.25" width="130" height="40" as="geometry"/>
                </mxCell>
                <mxCell id="212" value="&lt;font color=&quot;#ffffff&quot; style=&quot;font-size: 14px&quot;&gt;Số giờ làm thêm: 5&lt;/font&gt;" style="text;html=1;strokeColor=none;fillColor=none;align=center;verticalAlign=middle;whiteSpace=wrap;rounded=0;" parent="1" vertex="1">
                    <mxGeometry x="160" y="502.25" width="130" height="40" as="geometry"/>
                </mxCell>
                <mxCell id="213" value="" style="html=1;shadow=0;dashed=0;shape=mxgraph.bootstrap.rrect;rSize=5;strokeColor=#CED4DA;html=1;whiteSpace=wrap;fillColor=#FFFFFF;fontColor=#7D868C;align=left;spacing=15;spacingLeft=40;fontSize=14;" parent="1" vertex="1">
                    <mxGeometry x="80" y="542.25" width="210" height="36" as="geometry"/>
                </mxCell>
                <mxCell id="214" value="Lương" style="html=1;shadow=0;dashed=0;shape=mxgraph.bootstrap.leftButton;strokeColor=inherit;gradientColor=inherit;fontColor=inherit;fillColor=#E9ECEF;rSize=5;perimeter=none;whiteSpace=wrap;resizeHeight=1;fontSize=14;" parent="213" vertex="1">
                    <mxGeometry width="85.7142857142857" height="32.400000000000006" as="geometry"/>
                </mxCell>
                <mxCell id="215" value="&lt;font color=&quot;#000000&quot; style=&quot;font-size: 14px&quot;&gt;5000000 VNĐ&lt;/font&gt;" style="text;html=1;strokeColor=none;fillColor=none;align=center;verticalAlign=middle;whiteSpace=wrap;rounded=0;" parent="213" vertex="1">
                    <mxGeometry x="95" y="4.5" width="100" height="27" as="geometry"/>
                </mxCell>
                <mxCell id="218" value="&lt;font style=&quot;font-size: 14px&quot;&gt;&lt;br&gt;&lt;br&gt;&lt;br&gt;&lt;br&gt;&lt;br&gt;&lt;br&gt;&lt;/font&gt;" style="rounded=1;whiteSpace=wrap;html=1;strokeColor=#ededed;shadow=0;sketch=0;glass=0;fillColor=#333333;strokeWidth=0;" parent="1" vertex="1">
                    <mxGeometry x="310" y="410.75" width="230" height="180" as="geometry"/>
                </mxCell>
                <mxCell id="219" value="&lt;font color=&quot;#ffffff&quot;&gt;IMAGE&lt;/font&gt;" style="rounded=0;whiteSpace=wrap;html=1;shadow=0;glass=0;sketch=0;strokeColor=#ededed;strokeWidth=1;fillColor=#999999;" parent="1" vertex="1">
                    <mxGeometry x="320" y="455.75" width="80" height="85" as="geometry"/>
                </mxCell>
                <mxCell id="220" value="" style="line;strokeWidth=1;html=1;perimeter=backbonePerimeter;points=[];outlineConnect=0;strokeColor=#000000;" parent="1" vertex="1">
                    <mxGeometry x="320" y="440.75" width="210" height="10" as="geometry"/>
                </mxCell>
                <mxCell id="221" value="&lt;font color=&quot;#ffffff&quot; style=&quot;font-size: 14px&quot;&gt;Họ và tên nhân viên 5&lt;/font&gt;" style="text;html=1;strokeColor=none;fillColor=none;align=center;verticalAlign=middle;whiteSpace=wrap;rounded=0;" parent="1" vertex="1">
                    <mxGeometry x="310" y="410.75" width="230" height="40" as="geometry"/>
                </mxCell>
                <mxCell id="222" value="&lt;font color=&quot;#ffffff&quot; style=&quot;font-size: 14px&quot;&gt;Phòng ban: Finance&lt;/font&gt;" style="text;html=1;strokeColor=none;fillColor=none;align=center;verticalAlign=middle;whiteSpace=wrap;rounded=0;" parent="1" vertex="1">
                    <mxGeometry x="400" y="440.75" width="130" height="40" as="geometry"/>
                </mxCell>
                <mxCell id="223" value="&lt;font color=&quot;#ffffff&quot; style=&quot;font-size: 14px&quot;&gt;Mã nhân viên: 4&lt;/font&gt;" style="text;html=1;strokeColor=none;fillColor=none;align=center;verticalAlign=middle;whiteSpace=wrap;rounded=0;" parent="1" vertex="1">
                    <mxGeometry x="400" y="461.75" width="130" height="40" as="geometry"/>
                </mxCell>
                <mxCell id="224" value="&lt;font color=&quot;#ffffff&quot; style=&quot;font-size: 14px&quot;&gt;Hệ số lương: 1.2&lt;/font&gt;" style="text;html=1;strokeColor=none;fillColor=none;align=center;verticalAlign=middle;whiteSpace=wrap;rounded=0;" parent="1" vertex="1">
                    <mxGeometry x="400" y="482.75" width="130" height="40" as="geometry"/>
                </mxCell>
                <mxCell id="225" value="&lt;font color=&quot;#ffffff&quot; style=&quot;font-size: 14px&quot;&gt;Số giờ làm thêm: 5&lt;/font&gt;" style="text;html=1;strokeColor=none;fillColor=none;align=center;verticalAlign=middle;whiteSpace=wrap;rounded=0;" parent="1" vertex="1">
                    <mxGeometry x="400" y="504.75" width="130" height="40" as="geometry"/>
                </mxCell>
                <mxCell id="226" value="" style="html=1;shadow=0;dashed=0;shape=mxgraph.bootstrap.rrect;rSize=5;strokeColor=#CED4DA;html=1;whiteSpace=wrap;fillColor=#FFFFFF;fontColor=#7D868C;align=left;spacing=15;spacingLeft=40;fontSize=14;" parent="1" vertex="1">
                    <mxGeometry x="320" y="544.75" width="210" height="36" as="geometry"/>
                </mxCell>
                <mxCell id="227" value="Lương" style="html=1;shadow=0;dashed=0;shape=mxgraph.bootstrap.leftButton;strokeColor=inherit;gradientColor=inherit;fontColor=inherit;fillColor=#E9ECEF;rSize=5;perimeter=none;whiteSpace=wrap;resizeHeight=1;fontSize=14;" parent="226" vertex="1">
                    <mxGeometry width="85.7142857142857" height="32.400000000000006" as="geometry"/>
                </mxCell>
                <mxCell id="228" value="&lt;font color=&quot;#000000&quot; style=&quot;font-size: 14px&quot;&gt;5000000 VNĐ&lt;/font&gt;" style="text;html=1;strokeColor=none;fillColor=none;align=center;verticalAlign=middle;whiteSpace=wrap;rounded=0;" parent="226" vertex="1">
                    <mxGeometry x="95" y="4.5" width="100" height="27" as="geometry"/>
                </mxCell>
                <mxCell id="231" value="&lt;font style=&quot;font-size: 14px&quot;&gt;&lt;br&gt;&lt;br&gt;&lt;br&gt;&lt;br&gt;&lt;br&gt;&lt;br&gt;&lt;/font&gt;" style="rounded=1;whiteSpace=wrap;html=1;strokeColor=#ededed;shadow=0;sketch=0;glass=0;fillColor=#333333;strokeWidth=0;" parent="1" vertex="1">
                    <mxGeometry x="550" y="410.75" width="230" height="180" as="geometry"/>
                </mxCell>
                <mxCell id="232" value="&lt;font color=&quot;#ffffff&quot;&gt;IMAGE&lt;/font&gt;" style="rounded=0;whiteSpace=wrap;html=1;shadow=0;glass=0;sketch=0;strokeColor=#ededed;strokeWidth=1;fillColor=#999999;" parent="1" vertex="1">
                    <mxGeometry x="560" y="455.75" width="80" height="85" as="geometry"/>
                </mxCell>
                <mxCell id="233" value="" style="line;strokeWidth=1;html=1;perimeter=backbonePerimeter;points=[];outlineConnect=0;strokeColor=#000000;" parent="1" vertex="1">
                    <mxGeometry x="560" y="440.75" width="210" height="10" as="geometry"/>
                </mxCell>
                <mxCell id="234" value="&lt;font color=&quot;#ffffff&quot; style=&quot;font-size: 14px&quot;&gt;Họ và tên nhân viên 6&lt;/font&gt;" style="text;html=1;strokeColor=none;fillColor=none;align=center;verticalAlign=middle;whiteSpace=wrap;rounded=0;" parent="1" vertex="1">
                    <mxGeometry x="550" y="410.75" width="230" height="40" as="geometry"/>
                </mxCell>
                <mxCell id="235" value="&lt;font color=&quot;#ffffff&quot; style=&quot;font-size: 14px&quot;&gt;Phòng ban: Marketing&lt;/font&gt;" style="text;html=1;strokeColor=none;fillColor=none;align=center;verticalAlign=middle;whiteSpace=wrap;rounded=0;" parent="1" vertex="1">
                    <mxGeometry x="640" y="440.75" width="140" height="40" as="geometry"/>
                </mxCell>
                <mxCell id="236" value="&lt;font color=&quot;#ffffff&quot; style=&quot;font-size: 14px&quot;&gt;Mã nhân viên: 5&lt;/font&gt;" style="text;html=1;strokeColor=none;fillColor=none;align=center;verticalAlign=middle;whiteSpace=wrap;rounded=0;" parent="1" vertex="1">
                    <mxGeometry x="640" y="461.75" width="130" height="40" as="geometry"/>
                </mxCell>
                <mxCell id="237" value="&lt;font color=&quot;#ffffff&quot; style=&quot;font-size: 14px&quot;&gt;Hệ số lương: 1.2&lt;/font&gt;" style="text;html=1;strokeColor=none;fillColor=none;align=center;verticalAlign=middle;whiteSpace=wrap;rounded=0;" parent="1" vertex="1">
                    <mxGeometry x="640" y="482.75" width="130" height="40" as="geometry"/>
                </mxCell>
                <mxCell id="238" value="&lt;font color=&quot;#ffffff&quot; style=&quot;font-size: 14px&quot;&gt;Số giờ làm thêm: 5&lt;/font&gt;" style="text;html=1;strokeColor=none;fillColor=none;align=center;verticalAlign=middle;whiteSpace=wrap;rounded=0;" parent="1" vertex="1">
                    <mxGeometry x="640" y="504.75" width="130" height="40" as="geometry"/>
                </mxCell>
                <mxCell id="239" value="" style="html=1;shadow=0;dashed=0;shape=mxgraph.bootstrap.rrect;rSize=5;strokeColor=#CED4DA;html=1;whiteSpace=wrap;fillColor=#FFFFFF;fontColor=#7D868C;align=left;spacing=15;spacingLeft=40;fontSize=14;" parent="1" vertex="1">
                    <mxGeometry x="560" y="544.75" width="210" height="36" as="geometry"/>
                </mxCell>
                <mxCell id="240" value="Lương" style="html=1;shadow=0;dashed=0;shape=mxgraph.bootstrap.leftButton;strokeColor=inherit;gradientColor=inherit;fontColor=inherit;fillColor=#E9ECEF;rSize=5;perimeter=none;whiteSpace=wrap;resizeHeight=1;fontSize=14;" parent="239" vertex="1">
                    <mxGeometry width="85.7142857142857" height="32.400000000000006" as="geometry"/>
                </mxCell>
                <mxCell id="241" value="&lt;font color=&quot;#000000&quot; style=&quot;font-size: 14px&quot;&gt;5000000 VNĐ&lt;/font&gt;" style="text;html=1;strokeColor=none;fillColor=none;align=center;verticalAlign=middle;whiteSpace=wrap;rounded=0;" parent="239" vertex="1">
                    <mxGeometry x="95" y="4.5" width="100" height="27" as="geometry"/>
                </mxCell>
                <mxCell id="244" value="&lt;font style=&quot;font-size: 14px&quot;&gt;&lt;br&gt;&lt;br&gt;&lt;br&gt;&lt;br&gt;&lt;br&gt;&lt;br&gt;&lt;/font&gt;" style="rounded=1;whiteSpace=wrap;html=1;strokeColor=#ededed;shadow=0;sketch=0;glass=0;fillColor=#333333;strokeWidth=0;" parent="1" vertex="1">
                    <mxGeometry x="70" y="603.75" width="230" height="180" as="geometry"/>
                </mxCell>
                <mxCell id="245" value="&lt;font color=&quot;#ffffff&quot;&gt;IMAGE&lt;/font&gt;" style="rounded=0;whiteSpace=wrap;html=1;shadow=0;glass=0;sketch=0;strokeColor=#ededed;strokeWidth=1;fillColor=#999999;" parent="1" vertex="1">
                    <mxGeometry x="80" y="648.75" width="80" height="85" as="geometry"/>
                </mxCell>
                <mxCell id="247" value="" style="line;strokeWidth=1;html=1;perimeter=backbonePerimeter;points=[];outlineConnect=0;strokeColor=#000000;" parent="1" vertex="1">
                    <mxGeometry x="80" y="633.75" width="210" height="10" as="geometry"/>
                </mxCell>
                <mxCell id="248" value="&lt;font color=&quot;#ffffff&quot; style=&quot;font-size: 14px&quot;&gt;Họ và tên nhân viên 7&lt;/font&gt;" style="text;html=1;strokeColor=none;fillColor=none;align=center;verticalAlign=middle;whiteSpace=wrap;rounded=0;" parent="1" vertex="1">
                    <mxGeometry x="70" y="603.75" width="230" height="40" as="geometry"/>
                </mxCell>
                <mxCell id="249" value="&lt;font color=&quot;#ffffff&quot; style=&quot;font-size: 14px&quot;&gt;Phòng ban: Sale&lt;/font&gt;" style="text;html=1;strokeColor=none;fillColor=none;align=center;verticalAlign=middle;whiteSpace=wrap;rounded=0;" parent="1" vertex="1">
                    <mxGeometry x="160" y="633.75" width="130" height="40" as="geometry"/>
                </mxCell>
                <mxCell id="250" value="&lt;font color=&quot;#ffffff&quot; style=&quot;font-size: 14px&quot;&gt;Mã nhân viên: 6&lt;/font&gt;" style="text;html=1;strokeColor=none;fillColor=none;align=center;verticalAlign=middle;whiteSpace=wrap;rounded=0;" parent="1" vertex="1">
                    <mxGeometry x="160" y="654.75" width="130" height="40" as="geometry"/>
                </mxCell>
                <mxCell id="251" value="&lt;font color=&quot;#ffffff&quot; style=&quot;font-size: 14px&quot;&gt;Hệ số lương: 1.2&lt;/font&gt;" style="text;html=1;strokeColor=none;fillColor=none;align=center;verticalAlign=middle;whiteSpace=wrap;rounded=0;" parent="1" vertex="1">
                    <mxGeometry x="160" y="675.75" width="130" height="40" as="geometry"/>
                </mxCell>
                <mxCell id="252" value="&lt;font color=&quot;#ffffff&quot; style=&quot;font-size: 14px&quot;&gt;Số giờ làm thêm: 5&lt;/font&gt;" style="text;html=1;strokeColor=none;fillColor=none;align=center;verticalAlign=middle;whiteSpace=wrap;rounded=0;" parent="1" vertex="1">
                    <mxGeometry x="160" y="697.75" width="130" height="40" as="geometry"/>
                </mxCell>
                <mxCell id="253" value="" style="html=1;shadow=0;dashed=0;shape=mxgraph.bootstrap.rrect;rSize=5;strokeColor=#CED4DA;html=1;whiteSpace=wrap;fillColor=#FFFFFF;fontColor=#7D868C;align=left;spacing=15;spacingLeft=40;fontSize=14;" parent="1" vertex="1">
                    <mxGeometry x="80" y="737.75" width="210" height="36" as="geometry"/>
                </mxCell>
                <mxCell id="254" value="Lương" style="html=1;shadow=0;dashed=0;shape=mxgraph.bootstrap.leftButton;strokeColor=inherit;gradientColor=inherit;fontColor=inherit;fillColor=#E9ECEF;rSize=5;perimeter=none;whiteSpace=wrap;resizeHeight=1;fontSize=14;" parent="253" vertex="1">
                    <mxGeometry width="85.7142857142857" height="32.400000000000006" as="geometry"/>
                </mxCell>
                <mxCell id="255" value="&lt;font color=&quot;#000000&quot; style=&quot;font-size: 14px&quot;&gt;5000000 VNĐ&lt;/font&gt;" style="text;html=1;strokeColor=none;fillColor=none;align=center;verticalAlign=middle;whiteSpace=wrap;rounded=0;" parent="253" vertex="1">
                    <mxGeometry x="95" y="4.5" width="100" height="27" as="geometry"/>
                </mxCell>
                <mxCell id="258" value="&lt;font style=&quot;font-size: 14px&quot;&gt;&lt;br&gt;&lt;br&gt;&lt;br&gt;&lt;br&gt;&lt;br&gt;&lt;br&gt;&lt;/font&gt;" style="rounded=1;whiteSpace=wrap;html=1;strokeColor=#ededed;shadow=0;sketch=0;glass=0;fillColor=#333333;strokeWidth=0;" parent="1" vertex="1">
                    <mxGeometry x="310" y="606.25" width="230" height="180" as="geometry"/>
                </mxCell>
                <mxCell id="259" value="&lt;font color=&quot;#ffffff&quot;&gt;IMAGE&lt;/font&gt;" style="rounded=0;whiteSpace=wrap;html=1;shadow=0;glass=0;sketch=0;strokeColor=#ededed;strokeWidth=1;fillColor=#999999;" parent="1" vertex="1">
                    <mxGeometry x="320" y="651.25" width="80" height="85" as="geometry"/>
                </mxCell>
                <mxCell id="260" value="" style="line;strokeWidth=1;html=1;perimeter=backbonePerimeter;points=[];outlineConnect=0;strokeColor=#000000;" parent="1" vertex="1">
                    <mxGeometry x="320" y="636.25" width="210" height="10" as="geometry"/>
                </mxCell>
                <mxCell id="261" value="&lt;font color=&quot;#ffffff&quot; style=&quot;font-size: 14px&quot;&gt;Họ và tên nhân viên 8&lt;/font&gt;" style="text;html=1;strokeColor=none;fillColor=none;align=center;verticalAlign=middle;whiteSpace=wrap;rounded=0;" parent="1" vertex="1">
                    <mxGeometry x="310" y="606.25" width="230" height="40" as="geometry"/>
                </mxCell>
                <mxCell id="262" value="&lt;font color=&quot;#ffffff&quot; style=&quot;font-size: 14px&quot;&gt;Phòng ban: Sale&lt;/font&gt;" style="text;html=1;strokeColor=none;fillColor=none;align=center;verticalAlign=middle;whiteSpace=wrap;rounded=0;" parent="1" vertex="1">
                    <mxGeometry x="400" y="636.25" width="130" height="40" as="geometry"/>
                </mxCell>
                <mxCell id="263" value="&lt;font color=&quot;#ffffff&quot; style=&quot;font-size: 14px&quot;&gt;Mã nhân viên: 7&lt;/font&gt;" style="text;html=1;strokeColor=none;fillColor=none;align=center;verticalAlign=middle;whiteSpace=wrap;rounded=0;" parent="1" vertex="1">
                    <mxGeometry x="400" y="657.25" width="130" height="40" as="geometry"/>
                </mxCell>
                <mxCell id="264" value="&lt;font color=&quot;#ffffff&quot; style=&quot;font-size: 14px&quot;&gt;Hệ số lương: 1.2&lt;/font&gt;" style="text;html=1;strokeColor=none;fillColor=none;align=center;verticalAlign=middle;whiteSpace=wrap;rounded=0;" parent="1" vertex="1">
                    <mxGeometry x="400" y="678.25" width="130" height="40" as="geometry"/>
                </mxCell>
                <mxCell id="265" value="&lt;font color=&quot;#ffffff&quot; style=&quot;font-size: 14px&quot;&gt;Số giờ làm thêm: 5&lt;/font&gt;" style="text;html=1;strokeColor=none;fillColor=none;align=center;verticalAlign=middle;whiteSpace=wrap;rounded=0;" parent="1" vertex="1">
                    <mxGeometry x="400" y="700.25" width="130" height="40" as="geometry"/>
                </mxCell>
                <mxCell id="266" value="" style="html=1;shadow=0;dashed=0;shape=mxgraph.bootstrap.rrect;rSize=5;strokeColor=#CED4DA;html=1;whiteSpace=wrap;fillColor=#FFFFFF;fontColor=#7D868C;align=left;spacing=15;spacingLeft=40;fontSize=14;" parent="1" vertex="1">
                    <mxGeometry x="320" y="740.25" width="210" height="36" as="geometry"/>
                </mxCell>
                <mxCell id="267" value="Lương" style="html=1;shadow=0;dashed=0;shape=mxgraph.bootstrap.leftButton;strokeColor=inherit;gradientColor=inherit;fontColor=inherit;fillColor=#E9ECEF;rSize=5;perimeter=none;whiteSpace=wrap;resizeHeight=1;fontSize=14;" parent="266" vertex="1">
                    <mxGeometry width="85.7142857142857" height="32.400000000000006" as="geometry"/>
                </mxCell>
                <mxCell id="268" value="&lt;font color=&quot;#000000&quot; style=&quot;font-size: 14px&quot;&gt;5000000 VNĐ&lt;/font&gt;" style="text;html=1;strokeColor=none;fillColor=none;align=center;verticalAlign=middle;whiteSpace=wrap;rounded=0;" parent="266" vertex="1">
                    <mxGeometry x="95" y="4.5" width="100" height="27" as="geometry"/>
                </mxCell>
                <mxCell id="271" value="&lt;font style=&quot;font-size: 14px&quot;&gt;&lt;br&gt;&lt;br&gt;&lt;br&gt;&lt;br&gt;&lt;br&gt;&lt;br&gt;&lt;/font&gt;" style="rounded=1;whiteSpace=wrap;html=1;strokeColor=#ededed;shadow=0;sketch=0;glass=0;fillColor=#333333;strokeWidth=0;" parent="1" vertex="1">
                    <mxGeometry x="550" y="606.25" width="230" height="180" as="geometry"/>
                </mxCell>
                <mxCell id="272" value="&lt;font color=&quot;#ffffff&quot;&gt;IMAGE&lt;/font&gt;" style="rounded=0;whiteSpace=wrap;html=1;shadow=0;glass=0;sketch=0;strokeColor=#ededed;strokeWidth=1;fillColor=#999999;" parent="1" vertex="1">
                    <mxGeometry x="560" y="651.25" width="80" height="85" as="geometry"/>
                </mxCell>
                <mxCell id="273" value="" style="line;strokeWidth=1;html=1;perimeter=backbonePerimeter;points=[];outlineConnect=0;strokeColor=#000000;" parent="1" vertex="1">
                    <mxGeometry x="560" y="636.25" width="210" height="10" as="geometry"/>
                </mxCell>
                <mxCell id="274" value="&lt;font color=&quot;#ffffff&quot; style=&quot;font-size: 14px&quot;&gt;Họ và tên nhân viên 9&lt;/font&gt;" style="text;html=1;strokeColor=none;fillColor=none;align=center;verticalAlign=middle;whiteSpace=wrap;rounded=0;" parent="1" vertex="1">
                    <mxGeometry x="550" y="606.25" width="230" height="40" as="geometry"/>
                </mxCell>
                <mxCell id="275" value="&lt;font color=&quot;#ffffff&quot; style=&quot;font-size: 14px&quot;&gt;Phòng ban: Sale&lt;/font&gt;" style="text;html=1;strokeColor=none;fillColor=none;align=center;verticalAlign=middle;whiteSpace=wrap;rounded=0;" parent="1" vertex="1">
                    <mxGeometry x="640" y="636.25" width="130" height="40" as="geometry"/>
                </mxCell>
                <mxCell id="276" value="&lt;font color=&quot;#ffffff&quot; style=&quot;font-size: 14px&quot;&gt;Mã nhân viên: 8&lt;/font&gt;" style="text;html=1;strokeColor=none;fillColor=none;align=center;verticalAlign=middle;whiteSpace=wrap;rounded=0;" parent="1" vertex="1">
                    <mxGeometry x="640" y="657.25" width="130" height="40" as="geometry"/>
                </mxCell>
                <mxCell id="277" value="&lt;font color=&quot;#ffffff&quot; style=&quot;font-size: 14px&quot;&gt;Hệ số lương: 1.2&lt;/font&gt;" style="text;html=1;strokeColor=none;fillColor=none;align=center;verticalAlign=middle;whiteSpace=wrap;rounded=0;" parent="1" vertex="1">
                    <mxGeometry x="640" y="678.25" width="130" height="40" as="geometry"/>
                </mxCell>
                <mxCell id="278" value="&lt;font color=&quot;#ffffff&quot; style=&quot;font-size: 14px&quot;&gt;Số giờ làm thêm: 5&lt;/font&gt;" style="text;html=1;strokeColor=none;fillColor=none;align=center;verticalAlign=middle;whiteSpace=wrap;rounded=0;" parent="1" vertex="1">
                    <mxGeometry x="640" y="700.25" width="130" height="40" as="geometry"/>
                </mxCell>
                <mxCell id="279" value="" style="html=1;shadow=0;dashed=0;shape=mxgraph.bootstrap.rrect;rSize=5;strokeColor=#CED4DA;html=1;whiteSpace=wrap;fillColor=#FFFFFF;fontColor=#7D868C;align=left;spacing=15;spacingLeft=40;fontSize=14;" parent="1" vertex="1">
                    <mxGeometry x="560" y="740.25" width="210" height="36" as="geometry"/>
                </mxCell>
                <mxCell id="280" value="Lương" style="html=1;shadow=0;dashed=0;shape=mxgraph.bootstrap.leftButton;strokeColor=inherit;gradientColor=inherit;fontColor=inherit;fillColor=#E9ECEF;rSize=5;perimeter=none;whiteSpace=wrap;resizeHeight=1;fontSize=14;" parent="279" vertex="1">
                    <mxGeometry width="85.7142857142857" height="32.400000000000006" as="geometry"/>
                </mxCell>
                <mxCell id="281" value="&lt;font color=&quot;#000000&quot; style=&quot;font-size: 14px&quot;&gt;5000000 VNĐ&lt;/font&gt;" style="text;html=1;strokeColor=none;fillColor=none;align=center;verticalAlign=middle;whiteSpace=wrap;rounded=0;" parent="279" vertex="1">
                    <mxGeometry x="95" y="4.5" width="100" height="27" as="geometry"/>
                </mxCell>
                <mxCell id="282" value="" style="rounded=0;whiteSpace=wrap;html=1;fontSize=17;strokeWidth=1;fontColor=#ffffff;fillColor=#d1c4e9;strokeColor=#FFFFFF;" parent="1" vertex="1">
                    <mxGeometry y="810" width="850" height="200" as="geometry"/>
                </mxCell>
                <mxCell id="283" value="" style="rounded=0;whiteSpace=wrap;html=1;fontSize=17;fontColor=#FFFFFF;strokeWidth=1;fillColor=#D1C4E9;strokeColor=#D1C4E9;" parent="1" vertex="1">
                    <mxGeometry x="60" y="811" width="120" height="199" as="geometry"/>
                </mxCell>
                <mxCell id="284" value="&lt;div style=&quot;text-align: left&quot;&gt;&lt;br&gt;&lt;/div&gt;&lt;br&gt;&lt;br&gt;" style="rounded=0;whiteSpace=wrap;html=1;fontSize=17;fontColor=#FFFFFF;strokeWidth=1;fillColor=#d1c4e9;strokeColor=#D1C4E9;" parent="1" vertex="1">
                    <mxGeometry x="190" y="810" width="380" height="199" as="geometry"/>
                </mxCell>
                <mxCell id="285" value="" style="rounded=0;whiteSpace=wrap;html=1;fontSize=17;fontColor=#FFFFFF;strokeWidth=1;fillColor=#d1c4e9;strokeColor=#D1C4E9;" parent="1" vertex="1">
                    <mxGeometry x="580" y="811" width="210" height="199" as="geometry"/>
                </mxCell>
                <mxCell id="286" value="&lt;font style=&quot;font-size: 24px&quot;&gt;Link&lt;/font&gt;" style="text;html=1;strokeColor=none;fillColor=none;align=center;verticalAlign=middle;whiteSpace=wrap;rounded=0;fontSize=17;fontColor=#FFFFFF;" parent="1" vertex="1">
                    <mxGeometry x="60" y="830" width="60" height="40" as="geometry"/>
                </mxCell>
                <mxCell id="287" value="&lt;font style=&quot;font-size: 24px&quot;&gt;Our Address&lt;/font&gt;" style="text;html=1;strokeColor=none;fillColor=none;align=center;verticalAlign=middle;whiteSpace=wrap;rounded=0;fontSize=17;fontColor=#FFFFFF;" parent="1" vertex="1">
                    <mxGeometry x="190" y="829" width="160" height="40" as="geometry"/>
                </mxCell>
                <mxCell id="288" value="&lt;font style=&quot;font-size: 24px&quot;&gt;Social - Icon&lt;/font&gt;" style="text;html=1;strokeColor=none;fillColor=none;align=center;verticalAlign=middle;whiteSpace=wrap;rounded=0;fontSize=17;fontColor=#FFFFFF;" parent="1" vertex="1">
                    <mxGeometry x="605" y="890" width="160" height="40" as="geometry"/>
                </mxCell>
                <mxCell id="289" value="&lt;span style=&quot;color: rgb(15 , 15 , 15) ; font-family: &amp;#34;times new roman&amp;#34; , &amp;#34;times&amp;#34; , serif ; font-size: 16px ; background-color: rgb(209 , 196 , 233)&quot;&gt;121, Clear Water Bay Road&lt;/span&gt;&lt;br style=&quot;box-sizing: border-box ; margin: 0px ; padding: 0px ; color: rgb(15 , 15 , 15) ; font-family: &amp;#34;times new roman&amp;#34; , &amp;#34;times&amp;#34; , serif ; font-size: 16px ; background-color: rgb(209 , 196 , 233)&quot;&gt;&lt;span style=&quot;color: rgb(15 , 15 , 15) ; font-family: &amp;#34;times new roman&amp;#34; , &amp;#34;times&amp;#34; , serif ; font-size: 16px ; background-color: rgb(209 , 196 , 233)&quot;&gt;Clear Water Bay, Kowloon&lt;/span&gt;&lt;br style=&quot;box-sizing: border-box ; margin: 0px ; padding: 0px ; color: rgb(15 , 15 , 15) ; font-family: &amp;#34;times new roman&amp;#34; , &amp;#34;times&amp;#34; , serif ; font-size: 16px ; background-color: rgb(209 , 196 , 233)&quot;&gt;&lt;span style=&quot;color: rgb(15 , 15 , 15) ; font-family: &amp;#34;times new roman&amp;#34; , &amp;#34;times&amp;#34; , serif ; font-size: 16px ; background-color: rgb(209 , 196 , 233)&quot;&gt;HONG KONG&lt;/span&gt;" style="text;html=1;strokeColor=none;fillColor=none;align=left;verticalAlign=middle;whiteSpace=wrap;rounded=0;fontSize=17;fontColor=#FFFFFF;" parent="1" vertex="1">
                    <mxGeometry x="205" y="899" width="120" height="40" as="geometry"/>
                </mxCell>
                <mxCell id="290" value="&lt;font style=&quot;font-size: 14px&quot; color=&quot;#0000ff&quot;&gt;Nhân viên&lt;/font&gt;" style="text;html=1;strokeColor=none;fillColor=none;align=left;verticalAlign=middle;whiteSpace=wrap;rounded=0;fontSize=17;fontColor=#FFFFFF;" parent="1" vertex="1">
                    <mxGeometry x="60" y="870" width="90" height="40" as="geometry"/>
                </mxCell>
                <mxCell id="291" value="&lt;font style=&quot;font-size: 14px&quot; color=&quot;#0000ff&quot;&gt;Phòng ban&lt;/font&gt;" style="text;html=1;strokeColor=none;fillColor=none;align=left;verticalAlign=middle;whiteSpace=wrap;rounded=0;fontSize=17;fontColor=#FFFFFF;" parent="1" vertex="1">
                    <mxGeometry x="60" y="900" width="110" height="40" as="geometry"/>
                </mxCell>
                <mxCell id="292" value="&lt;font style=&quot;font-size: 14px&quot; color=&quot;#0000ff&quot;&gt;Bảng lương&lt;/font&gt;" style="text;html=1;strokeColor=none;fillColor=none;align=left;verticalAlign=middle;whiteSpace=wrap;rounded=0;fontSize=17;fontColor=#FFFFFF;" parent="1" vertex="1">
                    <mxGeometry x="60" y="930" width="100" height="40" as="geometry"/>
                </mxCell>
                <mxCell id="299" value="" style="html=1;shadow=0;dashed=0;shape=mxgraph.bootstrap.rrect;rSize=5;html=1;whiteSpace=wrap;fillColor=#FFFFFF;fontColor=#000000;sketch=0;strokeWidth=1;strokeColor=none;" parent="1" vertex="1">
                    <mxGeometry x="501" y="185" width="280" height="145" as="geometry"/>
                </mxCell>
                <mxCell id="300" value="Mã nhân viên" style="html=1;shadow=0;dashed=0;shape=mxgraph.bootstrap.topButton;rSize=5;strokeColor=none;fillColor=#0085FC;fontColor=#ffffff;perimeter=none;whiteSpace=wrap;resizeWidth=1;align=left;spacing=10;" parent="299" vertex="1">
                    <mxGeometry width="280" height="30" relative="1" as="geometry"/>
                </mxCell>
                <mxCell id="301" value="Mức lương tăng dần" style="strokeColor=inherit;fillColor=inherit;gradientColor=inherit;fontColor=inherit;html=1;shadow=0;dashed=0;perimeter=none;whiteSpace=wrap;resizeWidth=1;align=left;spacing=10;" parent="299" vertex="1">
                    <mxGeometry width="280" height="30" relative="1" as="geometry">
                        <mxPoint y="30" as="offset"/>
                    </mxGeometry>
                </mxCell>
                <mxCell id="302" value="Mức lương giảm dần" style="strokeColor=inherit;fillColor=inherit;gradientColor=inherit;fontColor=inherit;html=1;shadow=0;dashed=0;perimeter=none;whiteSpace=wrap;resizeWidth=1;align=left;spacing=10;" parent="299" vertex="1">
                    <mxGeometry width="280" height="30" relative="1" as="geometry">
                        <mxPoint y="60" as="offset"/>
                    </mxGeometry>
                </mxCell>
                <mxCell id="303" value="Phòng ban" style="strokeColor=inherit;fillColor=inherit;gradientColor=inherit;fontColor=inherit;html=1;shadow=0;dashed=0;perimeter=none;whiteSpace=wrap;resizeWidth=1;align=left;spacing=10;" parent="299" vertex="1">
                    <mxGeometry width="280" height="30" relative="1" as="geometry">
                        <mxPoint y="90" as="offset"/>
                    </mxGeometry>
                </mxCell>
                <mxCell id="304" value="Tên từ A - Z" style="strokeColor=inherit;fillColor=inherit;gradientColor=inherit;fontColor=inherit;html=1;shadow=0;dashed=0;shape=mxgraph.bootstrap.bottomButton;rSize=5;perimeter=none;whiteSpace=wrap;resizeWidth=1;resizeHeight=0;align=left;spacing=10;" parent="299" vertex="1">
                    <mxGeometry y="1" width="280" height="30" relative="1" as="geometry">
                        <mxPoint y="-30" as="offset"/>
                    </mxGeometry>
                </mxCell>
                <mxCell id="305" value="&lt;font color=&quot;#000000&quot;&gt;Tên từ Z - A&lt;/font&gt;" style="html=1;shadow=0;dashed=0;shape=mxgraph.bootstrap.bottomButton;rSize=5;perimeter=none;whiteSpace=wrap;resizeWidth=1;resizeHeight=0;align=left;spacing=10;fillColor=#FFFFFF;strokeColor=none;" parent="1" vertex="1">
                    <mxGeometry x="501" y="327.4999999999999" width="280" height="30" as="geometry"/>
                </mxCell>
            </root>
        </mxGraphModel>
    </diagram>
</mxfile>